<?xml version="1.0" encoding="UTF-8"?>
<svg id="Layer_2" data-name="Layer 2" xmlns="http://www.w3.org/2000/svg" viewBox="0 0 912.05 322.59">
  <defs>
    <style>
      .cls-1 {
        fill: #000;
      }

      .cls-1, .cls-2, .cls-3 {
        stroke-width: 0px;
      }

      .cls-2 {
        fill: #d11d21;
      }

      .cls-3 {
        fill: #dd2126;
      }
    </style>
  </defs>
  <g id="Layer_1-2" data-name="Layer 1">
    <path class="cls-2" d="M521.13,3.18c-10.09,13.27-30.65,40.11-34.01,44.54-1.56,1.99-4.73,6.17-7.54,9.84l-.75,1c-2.62,3.43-7.97,10.46-11.52,15.07l-5.29,6.85-137.59.25c-124.7.19-142.7.62-145.38.93-24.35,2.74-45.03,12.08-59.73,26.91-6.85,6.91-9.03,9.59-12.4,15.26-7.6,12.71-10.71,25.72-10.09,42.17.62,18.94,7.16,34.13,20.43,47.84,13.39,13.89,30.71,22.49,54.38,27.1,4.73.93,41.73,1.49,111,1.62h.31c64.09.12,91.38.19,99.66.62-1.25,4.73-3.36,12.83-5.05,19.43-.44,1.68-.93,3.49-1.37,5.36-1,3.86-2.06,7.85-2.62,10.09-.87,3.24-2.43,9.34-3.49,13.77-1,3.99-2.06,8.47-2.37,9.47-.19.62-.62,2.12-1.37,4.92-.5,1.87-1.06,4.05-1.68,6.23h0l-1.74,6.85-93.12-.25c-65.4-.19-103.46-1.12-114.24-2.87h-.44c-52.32-8.66-94.74-32.7-122.58-69.51C11.68,219,1.65,185.43,3.46,149.49c.44-8.53.75-11.34,2.68-21.36,3.67-19.12,12.52-38.74,24.85-55.31,5.61-7.41,19-21.12,26.6-27.1C82.13,26.35,112.58,13.33,148.03,7.16c8.53-1.49,24.23-3.24,31.64-3.61,2.49-.12,74.81-.25,175.84-.31l165.69-.12M527.49.06l-172.04.12c-94.55,0-173.78.19-176.03.31-7.54.37-23.3,2.18-32.02,3.68-35.94,6.29-66.96,19.56-91.87,39.24-7.79,6.17-21.49,20.18-27.16,27.72C15.66,88.2,6.76,108.07,2.96,127.69c-1.93,10.15-2.3,13.08-2.74,21.8-1.87,36.81,8.35,70.88,29.71,99.22,28.28,37.44,71.44,61.91,124.51,70.63,16.82,2.74,15.95,2.74,115.17,2.99l95.55.25,2.37-9.22c1.37-5.05,2.68-10.09,2.99-11.09.31-1.06,1.37-5.36,2.43-9.65s2.62-10.46,3.49-13.7,2.68-10.22,4.05-15.45c2.18-8.53,5.11-19.81,5.92-22.67.31-1-5.61-1.12-103.52-1.31-103.21-.19-103.9-.19-110.69-1.56-23.05-4.48-39.93-12.89-52.76-26.22-12.71-13.14-18.94-27.78-19.56-45.78-.62-15.88,2.3-28.22,9.65-40.49,3.3-5.54,5.42-8.1,11.96-14.7,14.14-14.26,34.32-23.36,57.87-26.04,4.05-.5,49.39-.81,145.01-.93l139.09-.25,6.23-8.1c3.43-4.42,8.6-11.21,11.52-15.07s6.6-8.72,8.28-10.84c3.74-4.86,28.15-36.81,36.75-48.02l1.18-1.49h.06v.06Z"/>
    <path class="cls-1" d="M539.82,23.54c-9.41,12.89-23.11,31.58-30.33,41.48-7.29,9.97-13.27,18.5-13.27,18.87,0,.62,41.92.81,207.54.81h207.54V.06h-354.48l-17.13,23.48h.12Z"/>
    <path class="cls-1" d="M833.38,105.52c-4.61,1.68-7.29,5.48-7.29,10.28s.81,5.23,2.49,6.91l1.37,1.37-1.37,3.18c-.81,1.81-2.49,5.42-3.8,8.04-1.37,2.68-2.43,5.11-2.43,5.48s2.06.62,5.17.62h5.11l5.98-9.84c3.3-5.36,6.48-10.71,7.04-11.83,1.43-2.8,1.43-7.72,0-10.22-2.24-3.86-7.72-5.61-12.21-3.99h-.06Z"/>
    <path class="cls-1" d="M433.37,109.94c-16.32,3.49-28.03,13.77-33.45,29.28-1.56,4.55-1.68,5.79-1.68,14.01s.12,9.47,1.37,12.58c3.43,8.47,10.65,15.01,20.37,18.37,4.55,1.49,5.79,1.68,14.33,1.68s14.2-.69,20.74-3.8c3.74-1.74,10.71-7.29,10.71-8.47s-2.24-2.99-4.92-5.67l-4.98-4.92-2.62,2.3c-4.48,4.11-8.6,5.61-16.13,5.86-8.28.31-12.46-1.06-16.82-5.42-8.1-8.1-6.23-25.1,3.8-34.63,4.36-4.17,8.72-6.29,14.64-7.1,8.04-1.18,14.51.69,19.87,5.61l2.74,2.49,5.79-4.8c3.18-2.62,5.86-5.05,5.98-5.29.12-.31-1.12-1.93-2.74-3.68-3.55-3.8-9.9-7.1-16.13-8.41-5.42-1.12-15.51-1.12-20.87,0h0Z"/>
    <path class="cls-1" d="M510.48,109.94c-8.78,1.74-16.69,5.92-22.92,12.21-7.91,7.85-11.83,17.13-12.33,28.9-.37,8.1.37,12.4,3.05,17.81,5.86,11.71,18.94,18,35.69,17.19,8.47-.44,12.64-1.49,20.12-5.17,14.39-7.04,23.17-21.61,23.23-38.56,0-7.41-.75-11.02-3.68-16.69-3.92-7.66-12.33-13.58-22.24-15.7-5.29-1.12-15.32-1.12-20.93,0h0ZM528.11,124.89c3.55,1.12,8.22,5.11,9.97,8.6,1.68,3.18,2.18,11.02,1.12,16.13-1.68,8.22-7.54,16.01-14.64,19.5-3.55,1.68-4.17,1.81-11.52,1.81s-7.97-.12-10.96-1.68c-6.29-3.3-9.59-9.16-9.59-17,0-19.68,17.44-33.07,35.63-27.34h0Z"/>
    <path class="cls-1" d="M875.61,110c-9.53,2.06-17.32,7.47-20.74,14.51-1.56,3.05-1.74,4.24-1.74,9.41s.25,6.35,1.37,8.47c2.93,5.42,8.1,8.47,21.3,12.33,11.59,3.43,13.77,4.92,13.77,9.28s-.44,2.87-2.06,4.48c-2.74,2.74-6.29,3.68-13.52,3.68s-12.27-1.25-19.18-4.67c-2.87-1.37-5.29-2.43-5.36-2.3-.12,0-1.62,2.93-3.43,6.29-2.43,4.55-3.11,6.35-2.62,6.91,1.12,1.31,8.78,4.61,14.14,6.04,6.66,1.87,22.17,2.06,28.15.44,13.08-3.61,20.56-11.52,21.18-22.3.37-5.98-.5-8.72-3.8-12.33-3.68-3.92-6.91-5.42-21.18-9.78-8.97-2.74-11.65-4.67-11.65-8.53s.44-2.93,2.37-4.86c2.99-3.05,6.35-3.99,13.83-3.99s11.15,1.12,16.32,3.74c1.62.81,3.11,1.49,3.3,1.49s1.74-2.8,3.43-6.29c3.61-7.1,3.61-7.16-1.43-9.28-8.04-3.49-23.05-4.73-32.45-2.74h0Z"/>
    <path class="cls-1" d="M576.82,111.62c-.37,1.49-14.64,72.88-14.64,73.13s3.61.19,8.04.19c7.16,0,8.1-.12,8.41-1.12.19-.56,2.18-10.53,4.48-22.11,2.3-11.52,4.3-20.87,4.42-20.74.19.12,3.61,8.22,7.66,17.94l7.35,17.63,3.99.19,3.99.19,13.95-17.81c7.72-9.84,14.08-17.63,14.14-17.32.19.44-6.73,35.26-8.22,41.73l-.37,1.43,8.28-.19,8.28-.19,6.98-35.19c3.8-19.37,7.1-36.13,7.35-37.25l.37-2.06-7.6.19-7.66.19-17.75,22.86c-9.84,12.58-18,22.86-18.19,22.86s-4.48-10.34-9.53-22.98l-9.22-23.05h-7.1c-6.85,0-7.1,0-7.41,1.37v.12h0Z"/>
    <path class="cls-1" d="M678.91,111.62c-.37,1.62-14.64,72.88-14.64,73.19s11.15.12,24.79,0c23.42-.25,24.98-.37,29.4-1.68,8.28-2.49,13.77-6.54,16.63-12.4,1.43-2.99,1.74-4.3,1.74-8.84,0-6.79-1.68-10.46-6.04-13.33-3.3-2.18-3.55-2.62-1.74-3.18,2.55-.81,7.23-5.17,8.97-8.41,2.12-3.92,2.87-10.4,1.62-14.89-1.12-4.11-5.48-8.16-10.9-10.03-4.24-1.49-4.92-1.56-26.91-1.74l-22.55-.19-.37,1.43h0v.06ZM716.65,123.89c3.43,1,4.86,2.43,5.29,5.48.5,3.92-1.18,7.23-4.73,9.34-2.8,1.62-3.11,1.68-14.82,1.87-6.6.12-12.02,0-12.02-.31s.75-4.24,1.62-8.78l1.68-8.22h10.34c5.67,0,11.4.31,12.64.62h0ZM715.6,154.79c2.93,1.37,4.05,3.3,4.05,6.85s-2.06,6.42-5.92,8.35-3.68,1.56-16.32,1.74c-7.72.12-13.27,0-13.27-.37,0-.75,3.11-16.38,3.49-17.5.19-.69,2.55-.81,12.89-.56,10.84.19,12.96.44,15.07,1.49h0Z"/>
    <path class="cls-1" d="M760.44,111.62c-.37,1.49-14.64,72.88-14.64,73.13s13.02.19,28.96.19h28.96l.31-1.43c.87-3.74,2.18-10.59,2.18-11.4s-3.05-.87-20.24-.87h-20.18l.37-2.06c.25-1.06,1-4.92,1.74-8.53l1.31-6.54,17.44-.19,17.44-.12,1.18-6.1c.62-3.3,1.25-6.42,1.37-6.85.25-.56-3.43-.75-17.25-.75s-17.5,0-17.19-1.12c.19-.56.93-4.24,1.68-8.04l1.37-7.04,19.62-.12,19.68-.19,1.12-5.29c.56-2.93,1.06-5.92,1.12-6.73v-1.37h-56l-.31,1.37h0l-.06.06Z"/>
    <path class="cls-3" d="M403.22,209.29c-1.31,2.18-2.87,4.55-3.36,5.29l-.87,1.43h502.73l3.3-4.86c1.74-2.68,3.24-5.05,3.24-5.29s-113.12-.44-251.33-.44h-251.27l-2.43,3.86h0Z"/>
    <path class="cls-1" d="M421.28,236.26c-8.47,2.18-16.57,8.53-20.24,15.95-5.61,11.4-4.61,23.79,2.55,31.08,9.16,9.47,30.33,9.97,40.18.93l2.99-2.74-3.74-3.74-3.68-3.8-1.62,1.49c-3.49,3.3-6.73,4.42-12.83,4.42s-5.86-.12-8.66-1.87c-4.17-2.55-5.92-5.98-5.92-11.52,0-8.28,3.55-14.82,9.97-18.31,2.68-1.43,4.36-1.87,8.22-2.12,5.86-.31,9.34.75,12.4,3.86l1.99,2.06,4.3-3.43c2.3-1.93,4.24-3.8,4.24-4.24,0-1.43-5.48-5.73-9.09-7.1-4.67-1.87-15.45-2.3-21.05-.93h0Z"/>
    <path class="cls-1" d="M613.63,236.26c-8.47,2.18-16.57,8.53-20.24,15.95-5.61,11.4-4.61,23.79,2.55,31.08,9.16,9.47,30.33,9.97,40.18.93l2.99-2.74-3.74-3.74-3.68-3.8-1.62,1.49c-3.49,3.3-6.73,4.42-12.83,4.42s-5.86-.12-8.66-1.87c-4.17-2.55-5.92-5.98-5.92-11.52,0-8.28,3.55-14.82,9.97-18.31,2.68-1.43,4.36-1.87,8.22-2.12,5.86-.31,9.34.75,12.4,3.86l1.99,2.06,4.3-3.43c2.3-1.93,4.24-3.8,4.24-4.24,0-1.43-5.48-5.73-9.09-7.1-4.67-1.87-15.45-2.3-21.05-.93h0Z"/>
    <path class="cls-1" d="M461.58,262.98c-9.34,14.51-17,26.53-17,26.78s2.93.37,6.48.37h6.48l3.3-5.61,3.3-5.61h25.29l.37,1.68c.19,1,.62,2.74.87,3.92s.69,2.93.87,3.86l.37,1.74h6.29c5.67,0,6.23-.12,5.92-1.12-.19-.56-3.18-12.64-6.6-26.78l-6.35-25.66h-12.64l-16.94,26.41ZM486.87,268.15c0,.62-1.99.81-8.1.81s-8.1-.12-8.1-.31c0-.44,10.4-17.69,11.4-18.87.5-.62,1.18,1.49,2.74,8.41,1.12,5.05,1.99,9.59,2.06,9.97Z"/>
    <path class="cls-1" d="M520.2,237.32c-.44,1.25-10.28,51.14-10.28,51.95s1.62.81,6.17.81h6.17l1.43-7.47,1.43-7.47h10.71l4.24,7.47,4.17,7.47h13.14l-2.37-4.24c-1.31-2.3-3.43-5.98-4.67-8.16l-2.3-3.99,3.49-1.68c3.61-1.68,7.97-5.86,9.72-9.16,1.74-3.36,2.49-9.47,1.68-13.39-1.31-6.23-4.98-9.97-11.83-11.96-4.42-1.31-30.46-1.49-30.89-.25h0v.06ZM546.42,247.72c3.18,1.49,3.92,2.8,3.92,7.1s-1.68,6.91-5.29,8.78c-2.06,1.06-3.86,1.37-10.09,1.56-4.55.12-7.66,0-7.66-.37,0-.75,3.11-16.38,3.43-17.5.44-1.31,12.52-1,15.7.44Z"/>
    <path class="cls-1" d="M654.62,237.32c-.44,1.25-10.28,51.14-10.28,51.95s4.55.81,20.74.81h20.74l.93-4.98,1-4.98h-14.58c-11.21,0-14.51-.19-14.51-.81s.56-3.11,1.12-6.04l1.12-5.29,12.52-.19,12.46-.12.75-3.92c.44-2.12.87-4.36,1.06-4.98.31-1-.56-1.06-12.21-1.06h-12.58l.31-1.43c.19-.75.69-3.24,1.12-5.61l.75-4.17h28.28l.75-3.92c.44-2.12.87-4.36,1.06-4.98.31-1-.93-1.06-19.99-1.06s-20.37.19-20.56.75h0v.06Z"/>
    <path class="cls-1" d="M706.31,237.32c-.44,1.31-10.28,51.14-10.28,52.01s1.43.75,6.04.62l6.04-.19,3.24-16.07c1.74-8.78,3.3-16.19,3.49-16.32.19-.19,4.73,7.1,10.15,16.19l9.78,16.51h10.28l5.11-25.72c2.8-14.08,5.23-26.16,5.42-26.78.31-.93-.25-1.06-5.86-1.06h-6.17l-3.3,16.57c-2.93,14.45-3.43,16.44-4.17,15.45-.44-.62-4.92-8.1-9.97-16.57l-9.16-15.45h-5.17c-3.61,0-5.29.25-5.48.75h0v.06Z"/>
    <path class="cls-1" d="M761.38,240.12c-.37,1.99-.87,4.24-1.06,4.98-.19.93,2.49,1.43,8.16,1.43s8.47.19,8.47.44-1.81,9.59-4.05,20.87c-2.24,11.21-4.05,20.87-4.05,21.36,0,.75,1.06.93,6.1.93h6.04l4.36-21.8,4.36-21.8h8.53c8.41,0,8.6,0,8.91-1.43,1.06-4.55,1.56-7.04,1.56-7.79s-5.05-.75-23.3-.75h-23.36l-.69,3.55Z"/>
    <path class="cls-1" d="M815.82,237.32c-.44,1.25-10.28,51.14-10.28,51.95s4.55.81,20.74.81h20.74l.93-4.98,1-4.98h-14.58c-11.21,0-14.51-.19-14.51-.81s.56-3.11,1.12-6.04l1.12-5.29,12.52-.19,12.46-.12.75-3.92c.44-2.12.87-4.36,1.06-4.98.31-1-.56-1.06-12.21-1.06h-12.58l.31-1.43c.19-.75.69-3.24,1.12-5.61l.75-4.17h28.28l.75-3.92c.44-2.12.87-4.36,1.06-4.98.31-1-.93-1.06-19.99-1.06s-20.37.19-20.56.75h0v.06Z"/>
    <path class="cls-1" d="M866.89,237.32c-.44,1.25-10.28,51.14-10.28,51.95s1.62.81,6.17.81h6.17l1.43-7.47,1.43-7.47h10.71l4.24,7.47,4.17,7.47h13.14l-2.37-4.24c-1.31-2.3-3.43-5.98-4.67-8.16l-2.3-3.99,3.49-1.68c3.61-1.68,7.97-5.86,9.72-9.16,1.74-3.36,2.49-9.47,1.68-13.39-1.31-6.23-4.98-9.97-11.83-11.96-4.42-1.31-30.46-1.49-30.89-.25h0v.06ZM893.12,247.72c3.18,1.49,3.92,2.8,3.92,7.1s-1.68,6.91-5.29,8.78c-2.06,1.06-3.86,1.37-10.09,1.56-4.55.12-7.66,0-7.66-.37,0-.75,3.11-16.38,3.43-17.5.44-1.31,12.52-1,15.7.44Z"/>
    <path class="cls-1" d="M624.22,305.65c-4.11,1.25-6.66,5.73-5.36,9.65,1.12,3.43,3.86,5.29,7.79,5.29s3.74-.31,5.23-1.56c4.61-3.92,3.68-10.84-1.87-13.02-2.74-1.12-3.18-1.12-5.79-.37ZM630.45,309.76c3.05,3.05.62,8.35-3.86,8.35s-4.61-1.68-5.05-4.48c-.5-3.05,1.74-5.48,5.05-5.48s2.74.5,3.86,1.62Z"/>
    <path class="cls-1" d="M397.86,313.12v7.47h4.67c5.42,0,7.91-1,9.34-3.74,1.93-3.74.62-8.53-2.8-10.28-1.12-.56-3.55-.93-6.54-.93h-4.67v7.47ZM408.08,309.45c1.25,1,1.62,1.81,1.62,3.68,0,3.18-2.18,4.98-5.98,4.98h-2.74v-9.97h2.74c1.81,0,3.24.44,4.36,1.31Z"/>
    <path class="cls-1" d="M434.61,313.12v7.47h1.56c1.37,0,1.56-.25,1.56-2.18s.19-2.18,1.81-2.18,2.24.56,3.43,2.18c1.18,1.49,2.18,2.18,3.3,2.18h1.56l-1.68-2.24-1.68-2.18,1.43-1.56c2.06-2.24,1.93-5.54-.31-7.47-1.43-1.31-2.37-1.49-6.35-1.49h-4.61v7.47h0ZM443.58,309.14c2.18,2.12.37,4.61-3.43,4.61h-2.43v-5.61h2.43c1.43,0,2.87.44,3.43,1Z"/>
    <path class="cls-1" d="M469.43,313.12v7.47h3.11v-14.95h-3.11v7.47Z"/>
    <path class="cls-1" d="M493.23,306.39c.19.44,1.68,3.86,3.3,7.54,2.74,6.23,3.11,6.73,4.55,6.54,1.37-.19,1.99-1.12,4.61-7.23,1.62-3.92,2.99-7.23,2.99-7.35s-.62-.25-1.37-.25c-1.18,0-1.81.87-3.55,5.05-1.18,2.74-2.37,5.11-2.62,5.23-.19.19-1.43-1.99-2.62-4.86-1.93-4.42-2.43-5.11-3.92-5.29-1.18-.19-1.56,0-1.37.62h0Z"/>
    <path class="cls-1" d="M529.23,313.12v7.47h5.61c5.17,0,5.61,0,5.61-1.25s-.44-1.25-4.05-1.25h-4.05v-1.87c0-1.74,0-1.81,3.55-1.99,2.87-.12,3.68-.44,3.8-1.31.19-.93-.31-1.06-3.55-1.06h-3.8v-3.74h4.05c3.61,0,4.05-.12,4.05-1.25s-.44-1.25-5.61-1.25h-5.61v7.47h0Z"/>
    <path class="cls-1" d="M586.85,308.57c.93,1.68,2.24,3.8,2.87,4.86.62,1,1.12,3.05,1.12,4.48,0,2.43.12,2.68,1.56,2.68s1.56-.25,1.56-2.8.56-3.74,2.55-6.98c1.43-2.37,2.68-4.42,2.87-4.73.12-.25-.37-.44-1.18-.44s-1.93.87-3.49,3.43c-1.12,1.87-2.18,3.43-2.3,3.43s-1.12-1.56-2.18-3.43c-1.56-2.74-2.3-3.43-3.55-3.43h-1.56l1.74,2.93h0Z"/>
    <path class="cls-1" d="M656.8,311.19c0,5.11.12,5.73,1.62,7.47,1.43,1.68,1.99,1.93,4.92,1.93s3.55-.31,4.92-1.62c1.49-1.56,1.62-2.06,1.62-7.47s0-5.86-1.25-5.86-1.25.44-1.25,4.48c0,5.73-.87,7.6-3.61,7.85-3.36.31-3.86-.56-3.86-6.79s0-5.54-1.56-5.54-1.56,0-1.56,5.54h0Z"/>
    <path class="cls-1" d="M692.3,313.12v7.47h1.56c1.37,0,1.56-.25,1.56-2.18s.19-2.18,1.81-2.18,2.24.56,3.43,2.18c1.18,1.49,2.18,2.18,3.3,2.18h1.56l-1.68-2.24-1.68-2.18,1.43-1.56c2.06-2.24,1.93-5.54-.31-7.47-1.43-1.31-2.37-1.49-6.35-1.49h-4.61v7.47h0ZM701.27,309.14c2.18,2.12.37,4.61-3.43,4.61h-2.43v-5.61h2.43c1.43,0,2.87.44,3.43,1Z"/>
    <path class="cls-1" d="M752.03,313.12v7.47h4.67c5.42,0,7.91-1,9.34-3.74,1.93-3.74.62-8.53-2.8-10.28-1.12-.56-3.55-.93-6.54-.93h-4.67v7.47ZM762.25,309.45c1.25,1,1.62,1.81,1.62,3.68,0,3.18-2.18,4.98-5.98,4.98h-2.74v-9.97h2.74c1.81,0,3.24.44,4.36,1.31Z"/>
    <path class="cls-1" d="M788.16,313.12v7.47h1.56c1.37,0,1.56-.25,1.56-2.18s.19-2.18,1.81-2.18,2.24.56,3.43,2.18c1.18,1.49,2.18,2.18,3.3,2.18h1.56l-1.68-2.24-1.68-2.18,1.43-1.56c2.06-2.24,1.93-5.54-.31-7.47-1.43-1.31-2.37-1.49-6.35-1.49h-4.61v7.47h0ZM797.07,309.14c2.18,2.12.37,4.61-3.43,4.61h-2.43v-5.61h2.43c1.43,0,2.87.44,3.43,1Z"/>
    <path class="cls-1" d="M822.98,313.12v7.47h5.61c5.17,0,5.61,0,5.61-1.25s-.44-1.25-4.05-1.25h-4.05v-1.87c0-1.74,0-1.81,3.55-1.99,2.87-.12,3.68-.44,3.8-1.31.19-.93-.31-1.06-3.55-1.06h-3.8v-3.74h4.05c3.61,0,4.05-.12,4.05-1.25s-.44-1.25-5.61-1.25h-5.61v7.47h0Z"/>
    <path class="cls-1" d="M857.61,312.31c-1.68,3.74-3.11,7.1-3.3,7.47-.19.5.25.81,1.18.81s1.81-.5,2.24-1.56c.69-1.43,1.06-1.56,4.48-1.56s3.8.12,4.36,1.56c.44,1.12,1.06,1.56,2.24,1.56s1.49-.25,1.37-.5c0-.31-1.56-3.68-3.3-7.47-2.8-6.23-3.3-6.98-4.73-6.98s-1.87.69-4.55,6.66h0ZM863.47,311.69c.5,1.31,1,2.55,1.12,2.8.12.31-.93.5-2.3.5s-2.55-.12-2.55-.31c0-.81,2.06-5.29,2.43-5.29s.81,1.06,1.31,2.3h0Z"/>
    <path class="cls-1" d="M891.43,313.06v7.54h1.56c1.49,0,1.56-.12,1.56-4.55v-4.48l2.24,3.55c1.25,1.99,2.62,3.61,3.05,3.61s1.74-1.62,2.93-3.61l2.06-3.55.19,4.48c.19,4.36.25,4.55,1.68,4.55h1.56v-7.47c0-7.35,0-7.47-1.37-7.47s-2.06,1.06-4.11,4.73c-1.49,2.62-2.87,4.55-3.11,4.3-.25-.19-1.56-2.3-2.99-4.55-1.68-2.8-2.99-4.24-3.86-4.36-1.37-.19-1.37,0-1.37,7.29h0Z"/>
    <path class="cls-3" d="M269.68,320.72c-65.46-.19-103.65-1.12-114.49-2.87h-.44c-52.76-8.72-95.49-32.95-123.58-70.14C10.12,219.75-.03,185.81,1.77,149.55c.44-8.6.81-11.46,2.74-21.55,3.74-19.31,12.64-39.18,25.1-55.93,5.67-7.54,19.18-21.36,26.85-27.41C81.19,25.1,111.9,12.02,147.65,5.79c8.6-1.49,24.35-3.3,31.83-3.68,2.06-.12,74.43-.25,175.96-.31l168.86-.12c-9.22,12.08-32.39,42.42-35.94,47.03-1.56,1.93-4.67,6.1-7.47,9.78l-.81,1.06c-2.62,3.43-7.97,10.46-11.52,15.07l-5.73,7.47-138.34.25c-94.8.12-140.96.44-145.19.93-23.98,2.74-44.35,11.9-58.8,26.47-6.73,6.79-8.91,9.47-12.21,15.01-7.47,12.46-10.53,25.16-9.84,41.3.62,18.5,6.98,33.39,19.99,46.84,13.21,13.64,30.21,22.11,53.63,26.66,4.61.93,41.48,1.43,110.69,1.56h.31c72.57.12,96.36.25,101.65.75-1.12,4.17-3.61,13.7-5.54,21.3l-1.37,5.29c-1.06,3.92-2.06,7.91-2.68,10.09-.87,3.24-2.43,9.34-3.49,13.7-1.06,4.24-2.12,8.53-2.43,9.59-.19.56-.69,2.37-1.31,4.92-.5,1.87-1.06,4.05-1.68,6.23l-2.06,8.04-94.3-.25h-.19v-.06Z"/>
  </g>
</svg>